<?xml version="1.0" encoding="UTF-8"?> <!-- Generator: Adobe Illustrator 16.0.0, SVG Export Plug-In . SVG Version: 6.00 Build 0) --> <svg xmlns="http://www.w3.org/2000/svg" xmlns:xlink="http://www.w3.org/1999/xlink" id="Layer_1" x="0px" y="0px" width="720px" height="288px" viewBox="0 0 720 288" xml:space="preserve"> <g> <g> <path fill="#3D4EFE" d="M400.26,115.46c0.265-0.706,1.151-1.944,2.832-1.944c1.68,0,3.009,1.327,3.009,3.009 c0,0.528-0.178,1.061-0.264,1.327l-20.71,54.597c-0.441,1.238-1.68,2.037-2.832,2.037c-1.149,0-2.388-0.799-2.831-2.037 l-20.707-54.597c-0.087-0.267-0.264-0.799-0.264-1.327c0-1.682,1.327-3.009,3.009-3.009c1.682,0,2.565,1.238,2.832,1.944 l17.961,47.61L400.26,115.46z"></path> <path fill="#3D4EFE" d="M433.619,156.17l-6.46,16.191c-0.439,1.148-1.416,2.125-2.919,2.125c-1.68,0-3.009-1.416-3.009-3.01 c0-0.354,0.089-0.971,0.265-1.326l21.592-54.602c0.444-1.061,1.239-2.033,2.832-2.033c1.505,0,2.477,0.972,2.921,2.033 l21.593,54.602c0.177,0.439,0.264,1.061,0.264,1.326c0,1.594-1.238,3.01-3.098,3.01c-1.503,0-2.477-0.887-2.918-2.037 l-6.374-16.279H433.619z M445.92,123.604l-10.441,27.08h20.974L445.92,123.604z"></path> <path fill="#3D4EFE" d="M503.881,171.477c0,1.684-1.326,3.01-3.007,3.01c-1.684,0-3.009-1.326-3.009-3.01V117.23 c0-1.682,1.325-3.009,3.009-3.009h17.609c9.822,0,16.901,7.434,16.901,16.901c0,9.116-6.282,16.463-15.84,16.902l16.193,21.592 c0.441,0.533,0.619,1.238,0.619,1.859c0,1.684-1.327,3.01-3.01,3.01c-0.883,0-1.857-0.355-2.565-1.416l-17.962-25.045h-8.939 V171.477z M503.881,142.539h14.778c6.193,0,10.619-5.042,10.619-11.416c0-6.547-4.515-11.416-10.884-11.416h-14.514V142.539z"></path> <path fill="#3D4EFE" d="M560.69,144.043c0-20.972,10.442-31.061,27.609-31.061c17.168,0,27.609,10.088,27.609,31.061 c0,20.798-10.441,30.972-27.609,30.972C571.133,175.016,560.69,164.842,560.69,144.043z M566.885,144.043 c0,17.257,7.876,25.486,21.415,25.486c13.54,0,21.415-8.229,21.415-25.486c0-17.346-7.875-25.575-21.415-25.575 C574.761,118.469,566.885,126.698,566.885,144.043z"></path> </g> <linearGradient id="SVGID_1_" gradientUnits="userSpaceOnUse" x1="383.5625" y1="402.7852" x2="130.5625" y2="33.7851"> <stop offset="0.1311" style="stop-color:#5B21C9"></stop> <stop offset="0.8877" style="stop-color:#3D69FD"></stop> </linearGradient> <path fill="url(#SVGID_1_)" d="M308.151,147.564c0.02-1.549,0.026-3.537-0.012-5.885h0.03v-0.589 c-0.252-31.609-3.965-46.925-7.896-57.623c-2.384-6.478-5.611-13.348-11.831-19.685c-4.863-4.949-10.046-8.04-15.07-10.331 c-3.108-1.5-6.176-2.618-9.096-3.57l-0.02-0.012c-22.845-7.902-45.435-8.834-51.596-9.027c-4.332-0.133-25.217-0.625-47.768,4.163 c-7.64,1.38-13.332,3.086-18.1,4.836c-2.594,0.952-5.248,2.045-7.908,3.409c-5.008,2.295-10.285,5.421-15.174,10.532 c-6.542,6.849-9.532,14.268-11.688,20.867c-7.798,23.884-8.037,47.28-7.914,55.582c-0.022,1.585-0.027,3.639,0.01,6.087h-0.025 l0.001,0.598c0.25,31.604,3.964,46.924,7.898,57.617c2.378,6.479,5.603,13.348,11.826,19.678 c5.182,5.279,10.729,8.451,16.057,10.777c2.347,1.066,4.749,2.002,7.197,2.809c23.161,8.209,46.283,9.168,52.53,9.357 c4.378,0.137,25.675,0.643,48.51-4.316c7.261-1.359,12.738-3.004,17.353-4.703c2.558-0.924,5.061-1.992,7.497-3.193 c5.129-2.316,10.562-5.467,15.589-10.73c6.544-6.842,9.53-14.256,11.686-20.863c7.866-24.082,8.043-47.662,7.915-55.779"></path> <g> <linearGradient id="SVGID_2_" gradientUnits="userSpaceOnUse" x1="217.0938" y1="173.291" x2="251.515" y2="93.4323"> <stop offset="0.0995" style="stop-color:#FF4200"></stop> <stop offset="0.5464" style="stop-color:#FE8A0C"></stop> <stop offset="0.9828" style="stop-color:#FAAA2C"></stop> </linearGradient> <path fill="url(#SVGID_2_)" d="M225.366,197.289c-5.28,9.842-17.539,13.537-27.377,8.262l0,0 c-9.838-5.281-13.537-17.539-8.261-27.377l39.081-75.259c5.28-9.842,17.533-13.537,27.377-8.261l0,0 c9.838,5.28,13.54,17.535,8.261,27.381L225.366,197.289z"></path> <g> <path fill="#FFFFFF" d="M189.714,197.479c5.278,9.838,17.537,13.537,27.375,8.258l0,0c9.842-5.281,13.542-17.535,8.261-27.373 l-17.736-33.678c-5.28-9.839-17.535-13.534-27.375-8.257l0,0c-9.842,5.28-13.539,17.535-8.261,27.377L189.714,197.479z"></path> <circle fill="#FFFFFF" cx="165.059" cy="113.578" r="19.647"></circle> </g> </g> </g> </svg> 